<svg width="756" height="558" viewBox="0 0 756 558" fill="none" xmlns="http://www.w3.org/2000/svg">
<path d="M125 1H291.679C293.221 1 294.758 1.1784 296.26 1.53166L464 41L625.168 88.4605C626.386 88.8193 627.568 89.2935 628.697 89.8766L743.99 149.432C758.342 156.846 758.438 177.337 744.155 184.884L605.857 257.962C603.305 259.31 600.539 260.207 597.68 260.611L496 275L393 284L19.3901 321.536C0.844615 323.399 -5.29491 347.382 10.0741 357.927L99.6623 419.396C101.213 420.46 102.906 421.3 104.691 421.891L250 470L397 524L541 557" stroke="#D695B3" stroke-dasharray="4 4"/>
</svg>
